<?xml version="1.0" encoding="utf-8"?>
<!-- Generator: Adobe Illustrator 27.7.0, SVG Export Plug-In . SVG Version: 6.00 Build 0)  -->
<svg version="1.1" id="Layer_1" xmlns="http://www.w3.org/2000/svg" xmlns:xlink="http://www.w3.org/1999/xlink" x="0px" y="0px"
	 viewBox="0 0 3500 3500" style="enable-background:new 0 0 3500 3500;" xml:space="preserve">
<style type="text/css">
	.st0{fill:#FFFFFF;}
	.st1{fill:#EE2128;}
</style>
<rect y="1462.3" class="st0" width="2049.1" height="575.3"/>
<path d="M1194,1528.7c3.4-0.5,6.1-1.3,8.8-1.3c51.9,1.1,103.9,1,155.7,4.1c35.8,2.1,70.5,11.1,102.2,29.4
	c39.1,22.6,59.9,56.5,66.4,100.9c3.3,22.5,2.9,44.6-1.3,66.5c-6.5,33.8-24.8,60.6-52.3,81.2c-3.9,2.9-7.8,5.8-12.9,9.6
	c31,49.1,61.3,97.1,92.7,146.7c-5.4,1-8.9,2.1-12.4,2.1c-31.3,0.2-62.6-0.2-93.8,0.3c-9,0.1-14.3-3.3-18.9-10.7
	c-19.8-31.8-39.9-63.3-60-94.8c-3.3-5.1-6.8-10.1-10.6-15.8c-19.2,1.1-37.9,2.2-58.5,3.4v113.6c-12.6,5-82.1,6.3-104.4,2.7
	C1190.4,1954.6,1189.5,1548.2,1194,1528.7L1194,1528.7z M1301.2,1754.6c26.4,1.4,52,1.2,76.9-5.9c18.6-5.3,33.8-16.2,38.8-35.8
	c2.7-10.5,2.7-22.2,1.7-33.2c-1.6-18.6-11.8-32.3-28.8-40.3c-28.4-13.3-58.4-11.1-87.9-10.1
	C1298.4,1643.4,1297.8,1735.3,1301.2,1754.6L1301.2,1754.6z"/>
<path d="M2004.4,1966.9h-113c-7.6-16.6-15.4-33.7-23.7-51.7h-165.6c-7.4,16.6-15.1,33.8-23.1,51.7h-106.2
	c20.8-51,43.1-99.3,64.2-148.1c21.5-49.7,43.1-99.2,64.8-148.8c21.5-49,43.1-97.9,65.4-148.5c10.8,0,21.2,0,31.7,0
	c7.6,0,10.3,5.3,12.9,11.2c15.6,35.2,31.2,70.4,46.9,105.5c35.8,80,71.6,159.9,107.5,239.9c10.7,23.9,21.7,47.8,32.3,71.8
	C2000.7,1954.9,2002.1,1960.2,2004.4,1966.9L2004.4,1966.9z M1741.6,1820.9c15.8,4,71.1,3.8,85.3-0.4c-13.9-32.1-27.8-64-41.7-95.9
	c-1.2,0-2.4,0-3.6-0.1C1768.2,1756.6,1755,1788.7,1741.6,1820.9L1741.6,1820.9z"/>
<path class="st1" d="M794.6,1966.6H682c-5.3-11.8-11.1-23.2-15.6-35.1c-5-13.2-12.8-18.5-27.6-18.2c-44.7,0.9-89.4,0.3-134-0.2
	c-9.2-0.1-14.5,3.1-17.9,11.5c-5.7,13.9-12.1,27.5-18.4,41.8H363.5c32.7-76,64.9-149.3,97.1-222.6c32.2-73.5,64.4-147.1,96.7-220.8
	H596C661.6,1669.4,727.3,1816.3,794.6,1966.6L794.6,1966.6z M618.9,1824.3c-15.1-36-28.2-69.1-44.3-100.8c-1.3,0.1-2.6,0.2-3.8,0.3
	c-13.5,32.7-27,65.4-41.5,100.5L618.9,1824.3L618.9,1824.3z"/>
<path class="st1" d="M109.9,1928.7c13.4-15,28.7-24.4,48-32.1c-3.7-6.2-6.4-11.4-9.6-16.2c-26.4-39.4-53.4-78.5-79.2-118.3
	c-9.6-14.8-16.6-31.2-25.8-48.7c23.3-5.3,42.9,2.3,64.8,5.2c5.2-29.3,2.7-59.2,12.6-89.5c33.8,12,57.9,36.1,82.4,61.7
	c13.9-15.5,13.8-37.3,30.7-51.3c3.8,5.9,7.6,11.1,10.6,16.7c16.4,30,29.8,61.2,40.3,93.8c2.4,7.3,5.5,14.3,10.1,21.4
	c12.1-74.6,18.7-150,44.9-223.8c26,18.9,45.6,41.1,65.5,65.7c4.7-5.1,8-8.4,11.1-12c17.6-20.2,34.9-40.6,52.7-60.5
	c3.9-4.3,9.3-7.3,14-10.9c1,0.7,1.9,1.3,2.9,2c-11.4,28.2-22.5,56.4-34.1,84.5c-36.8,89.3-74,178.4-110.6,267.8
	c-10.8,26.4-24.8,49.8-49.4,65.8c-28.3,18.3-59,24.9-91.1,15.5c-26.7-7.8-52.4-19-78.5-29C118.1,1934.7,114.7,1931.7,109.9,1928.7
	L109.9,1928.7z"/>
<path d="M946.2,1967.2H842.4c-4.5-13-5.1-420.8-1-436.9c11.5-3.6,269.4-4.6,292.2-0.9c2.5,32.2,0.4,64.8,1.2,99.5H950.3
	c-4.1,13.8-5,68.8-1.8,93.4c5.5,0.3,11.4,1,17.3,1c39.1,0.1,78.2,0,117.3,0.1c6,0,11.9,0.8,18.8,1.2v95.1
	c-51.4,1.3-102-0.1-154.3,0.8C945.6,1869.9,948,1917.7,946.2,1967.2L946.2,1967.2z"/>
<g>
	<path class="st0" d="M2483.9,1622.2h-171.7v119.4H2470v88.9h-157.8v189h-109.6V1533h281.2V1622.2L2483.9,1622.2z"/>
	<path class="st0" d="M2607.8,1617.1c-18.1,0-32.9-5.4-44.4-16.1c-11.5-10.7-17.3-23.9-17.3-39.5s5.8-29.2,17.3-39.3
		c11.5-10.2,26.3-15.3,44.4-15.3s33.2,5.1,44.6,15.3c11.4,10.2,17.1,23.3,17.1,39.3s-5.7,29.6-17.1,40S2626.1,1617.1,2607.8,1617.1z
		 M2660.7,2019.4h-107.2v-347.4h107.2V2019.4z"/>
	<path class="st0" d="M2858.1,2019.4h-107.2v-514.3h107.2V2019.4z"/>
	<path class="st0" d="M3500,2019.4h-106.9v-198.1c0-50.4-18.6-75.7-55.6-75.7c-17.6,0-32,7.6-43.1,22.7
		c-11.1,15.2-16.6,34-16.6,56.7v194.4h-107.2v-200.2c0-49.1-18.2-73.6-54.6-73.6c-18.3,0-33,7.2-43.9,21.7
		c-11,14.5-16.5,34.2-16.5,59v193h-107.2V1672h107.2v54.3h1.4c11.1-18.5,26.6-33.6,46.6-45.3s41.9-17.5,65.6-17.5
		c49.1,0,82.7,21.6,100.8,64.8c26.5-43.2,65.4-64.8,116.7-64.8c75.5,0,113.3,46.6,113.3,139.8L3500,2019.4L3500,2019.4z"/>
</g>
</svg>
